<?xml version="1.0" encoding="UTF-8"?>
<!DOCTYPE svg PUBLIC "-//W3C//DTD SVG 1.1//EN" "http://www.w3.org/Graphics/SVG/1.1/DTD/svg11.dtd">
<svg xmlns="http://www.w3.org/2000/svg" version="1.1" width="512px" height="512px" style="shape-rendering:geometricPrecision; text-rendering:geometricPrecision; image-rendering:optimizeQuality; fill-rule:evenodd; clip-rule:evenodd" xmlns:xlink="http://www.w3.org/1999/xlink">
<g><path style="opacity:0.993" fill="#273b79" d="M 233.5,-0.5 C 248.167,-0.5 262.833,-0.5 277.5,-0.5C 377.805,11.9821 449.305,63.9821 492,155.5C 502.297,180.687 508.797,206.687 511.5,233.5C 511.5,237.167 511.5,240.833 511.5,244.5C 481.786,215.118 452.119,185.785 422.5,156.5C 419.381,152.043 415.381,148.709 410.5,146.5C 397.696,141.715 387.196,144.715 379,155.5C 376.015,160.954 373.515,166.621 371.5,172.5C 367.833,169.167 364.167,165.833 360.5,162.5C 355.902,155.199 349.235,151.532 340.5,151.5C 328.741,152.085 321.241,158.085 318,169.5C 317.123,186.503 316.29,203.503 315.5,220.5C 313.116,218.115 310.45,216.115 307.5,214.5C 306.167,211.833 304.833,211.833 303.5,214.5C 298.458,209.278 292.458,206.612 285.5,206.5C 286.335,211.167 288.002,215.501 290.5,219.5C 280.435,215.523 271.768,217.523 264.5,225.5C 256.833,218.167 249.167,210.833 241.5,203.5C 241.047,202.542 240.381,201.708 239.5,201C 234.511,200.501 229.511,200.334 224.5,200.5C 207.833,182.827 190.833,166.16 173.5,150.5C 172.78,147.94 171.113,146.107 168.5,145C 160.988,144.178 153.655,144.345 146.5,145.5C 144.596,145.738 143.262,146.738 142.5,148.5C 141.747,154.013 141.081,159.68 140.5,165.5C 140.685,166.584 141.018,167.584 141.5,168.5C 128.899,181.364 120.732,196.698 117,214.5C 116.5,228.163 116.333,241.829 116.5,255.5C 115.5,255.5 114.5,255.5 113.5,255.5C 113.333,296.835 113.5,338.168 114,379.5C 116.146,387.135 120.646,392.802 127.5,396.5C 127.062,396.435 126.728,396.601 126.5,397C 164.701,435.035 202.701,473.201 240.5,511.5C 238.167,511.5 235.833,511.5 233.5,511.5C 133.195,499.018 61.6947,447.018 19,355.5C 8.70332,330.313 2.20332,304.313 -0.5,277.5C -0.5,262.833 -0.5,248.167 -0.5,233.5C 11.9821,133.195 63.9821,61.6947 155.5,19C 180.687,8.70332 206.687,2.20332 233.5,-0.5 Z"/></g>
<g><path style="opacity:1" fill="#ada067" d="M 410.5,146.5 C 406.111,158.943 401.444,171.277 396.5,183.5C 391.069,182.246 385.736,180.579 380.5,178.5C 379.558,178.608 378.725,178.941 378,179.5C 377.202,181.259 377.369,182.926 378.5,184.5C 383.074,186.371 387.574,188.371 392,190.5C 390.921,195.513 389.088,200.347 386.5,205C 381.441,204.538 376.608,203.038 372,200.5C 368.655,201.719 367.821,203.886 369.5,207C 374.329,208.884 378.995,211.051 383.5,213.5C 381.353,218.62 379.019,223.62 376.5,228.5C 372.116,226.538 367.616,224.872 363,223.5C 362.098,223.743 361.265,224.077 360.5,224.5C 360.51,214.01 361.51,203.676 363.5,193.5C 365.892,186.385 368.558,179.385 371.5,172.5C 373.515,166.621 376.015,160.954 379,155.5C 387.196,144.715 397.696,141.715 410.5,146.5 Z"/></g>
<g><path style="opacity:1" fill="#fdfdfd" d="M 146.5,145.5 C 150.167,145.5 153.833,145.5 157.5,145.5C 157.5,151.5 157.5,157.5 157.5,163.5C 152.5,163.5 147.5,163.5 142.5,163.5C 142.5,158.5 142.5,153.5 142.5,148.5C 143.262,146.738 144.596,145.738 146.5,145.5 Z"/></g>
<g><path style="opacity:1" fill="#c7c8cb" d="M 146.5,145.5 C 153.655,144.345 160.988,144.178 168.5,145C 171.113,146.107 172.78,147.94 173.5,150.5C 173.273,155.544 173.606,160.544 174.5,165.5C 174.253,166.713 173.586,167.38 172.5,167.5C 167.5,167.5 162.5,167.5 157.5,167.5C 152.073,167.218 146.74,167.551 141.5,168.5C 141.018,167.584 140.685,166.584 140.5,165.5C 141.081,159.68 141.747,154.013 142.5,148.5C 142.5,153.5 142.5,158.5 142.5,163.5C 147.5,163.5 152.5,163.5 157.5,163.5C 157.5,157.5 157.5,151.5 157.5,145.5C 153.833,145.5 150.167,145.5 146.5,145.5 Z"/></g>
<g><path style="opacity:1" fill="#958853" d="M 410.5,146.5 C 415.381,148.709 419.381,152.043 422.5,156.5C 426.691,163.409 427.525,170.742 425,178.5C 415.058,204.163 405.225,229.83 395.5,255.5C 383.5,255.5 371.5,255.5 359.5,255.5C 359.336,252.813 359.503,250.146 360,247.5C 362.587,249.196 365.421,250.196 368.5,250.5C 369.763,245.711 371.43,241.045 373.5,236.5C 373.167,235.833 372.833,235.167 372.5,234.5C 368.874,232.902 365.207,231.402 361.5,230C 360.594,228.301 360.261,226.467 360.5,224.5C 361.265,224.077 362.098,223.743 363,223.5C 367.616,224.872 372.116,226.538 376.5,228.5C 379.019,223.62 381.353,218.62 383.5,213.5C 378.995,211.051 374.329,208.884 369.5,207C 367.821,203.886 368.655,201.719 372,200.5C 376.608,203.038 381.441,204.538 386.5,205C 389.088,200.347 390.921,195.513 392,190.5C 387.574,188.371 383.074,186.371 378.5,184.5C 377.369,182.926 377.202,181.259 378,179.5C 378.725,178.941 379.558,178.608 380.5,178.5C 385.736,180.579 391.069,182.246 396.5,183.5C 401.444,171.277 406.111,158.943 410.5,146.5 Z"/></g>
<g><path style="opacity:1" fill="#141249" d="M 224.5,200.5 C 222.901,200.232 221.568,200.566 220.5,201.5C 219.5,201.833 218.833,202.5 218.5,203.5C 217.776,207.365 217.109,211.365 216.5,215.5C 217.127,216.417 217.461,217.417 217.5,218.5C 206.969,228.564 200.969,240.897 199.5,255.5C 199.167,255.5 198.833,255.5 198.5,255.5C 204.277,221.597 195.61,192.264 172.5,167.5C 173.586,167.38 174.253,166.713 174.5,165.5C 173.606,160.544 173.273,155.544 173.5,150.5C 190.833,166.16 207.833,182.827 224.5,200.5 Z"/></g>
<g><path style="opacity:1" fill="#b9ac7c" d="M 340.5,151.5 C 340.42,162.843 340.087,174.176 339.5,185.5C 334.821,185.334 330.155,185.501 325.5,186C 322.936,188.276 323.27,190.276 326.5,192C 330.486,192.499 334.486,192.666 338.5,192.5C 338.5,196.833 338.5,201.167 338.5,205.5C 333.968,205.182 329.634,205.515 325.5,206.5C 322.959,208.44 322.959,210.607 325.5,213C 329.821,213.499 334.154,213.666 338.5,213.5C 338.5,217.833 338.5,222.167 338.5,226.5C 335.5,226.5 332.5,226.5 329.5,226.5C 328.167,226.5 326.833,226.5 325.5,226.5C 322.236,225.676 318.902,225.342 315.5,225.5C 315.5,223.833 315.5,222.167 315.5,220.5C 316.29,203.503 317.123,186.503 318,169.5C 321.241,158.085 328.741,152.085 340.5,151.5 Z"/></g>
<g><path style="opacity:1" fill="#ae9f6f" d="M 340.5,151.5 C 349.235,151.532 355.902,155.199 360.5,162.5C 360.892,164.179 361.392,165.846 362,167.5C 362.17,176.343 362.67,185.01 363.5,193.5C 361.51,203.676 360.51,214.01 360.5,224.5C 360.261,226.467 360.594,228.301 361.5,230C 365.207,231.402 368.874,232.902 372.5,234.5C 372.833,235.167 373.167,235.833 373.5,236.5C 371.43,241.045 369.763,245.711 368.5,250.5C 365.421,250.196 362.587,249.196 360,247.5C 359.503,250.146 359.336,252.813 359.5,255.5C 356.5,255.5 353.5,255.5 350.5,255.5C 352.576,253.631 352.909,251.464 351.5,249C 347.179,248.501 342.846,248.334 338.5,248.5C 338.85,243.969 338.183,239.636 336.5,235.5C 341.651,234.673 346.984,234.173 352.5,234C 353.935,231.733 353.602,229.733 351.5,228C 343.989,227.829 336.655,227.329 329.5,226.5C 332.5,226.5 335.5,226.5 338.5,226.5C 338.5,222.167 338.5,217.833 338.5,213.5C 343.511,213.666 348.511,213.499 353.5,213C 354.935,210.733 354.602,208.733 352.5,207C 343.506,206.5 334.506,206.334 325.5,206.5C 329.634,205.515 333.968,205.182 338.5,205.5C 338.5,201.167 338.5,196.833 338.5,192.5C 343.463,193.496 348.463,193.663 353.5,193C 356.371,190.16 356.037,187.826 352.5,186C 348.179,185.501 343.846,185.334 339.5,185.5C 340.087,174.176 340.42,162.843 340.5,151.5 Z"/></g>
<g><path style="opacity:1" fill="#131149" d="M 422.5,156.5 C 452.119,185.785 481.786,215.118 511.5,244.5C 511.5,255.5 511.5,266.5 511.5,277.5C 499.018,377.805 447.018,449.305 355.5,492C 330.313,502.297 304.313,508.797 277.5,511.5C 265.167,511.5 252.833,511.5 240.5,511.5C 202.701,473.201 164.701,435.035 126.5,397C 126.728,396.601 127.062,396.435 127.5,396.5C 170.136,397.484 212.803,397.817 255.5,397.5C 297.168,397.667 338.835,397.5 380.5,397C 388.667,394.167 394.167,388.667 397,380.5C 397.167,359.667 397.333,338.833 397.5,318C 397.5,296.822 396.833,275.989 395.5,255.5C 405.225,229.83 415.058,204.163 425,178.5C 427.525,170.742 426.691,163.409 422.5,156.5 Z"/></g>
<g><path style="opacity:1" fill="#14134a" d="M 360.5,162.5 C 364.167,165.833 367.833,169.167 371.5,172.5C 368.558,179.385 365.892,186.385 363.5,193.5C 362.67,185.01 362.17,176.343 362,167.5C 361.392,165.846 360.892,164.179 360.5,162.5 Z"/></g>
<g><path style="opacity:1" fill="#fde086" d="M 157.5,167.5 C 157.5,196.833 157.5,226.167 157.5,255.5C 143.833,255.5 130.167,255.5 116.5,255.5C 116.333,241.829 116.5,228.163 117,214.5C 120.732,196.698 128.899,181.364 141.5,168.5C 146.74,167.551 152.073,167.218 157.5,167.5 Z"/></g>
<g><path style="opacity:1" fill="#fec51b" d="M 157.5,167.5 C 162.5,167.5 167.5,167.5 172.5,167.5C 195.61,192.264 204.277,221.597 198.5,255.5C 184.833,255.5 171.167,255.5 157.5,255.5C 157.5,226.167 157.5,196.833 157.5,167.5 Z"/></g>
<g><path style="opacity:1" fill="#867a43" d="M 339.5,185.5 C 343.846,185.334 348.179,185.501 352.5,186C 356.037,187.826 356.371,190.16 353.5,193C 348.463,193.663 343.463,193.496 338.5,192.5C 334.486,192.666 330.486,192.499 326.5,192C 323.27,190.276 322.936,188.276 325.5,186C 330.155,185.501 334.821,185.334 339.5,185.5 Z"/></g>
<g><path style="opacity:1" fill="#fefefe" d="M 220.5,201.5 C 223.5,201.5 226.5,201.5 229.5,201.5C 229.5,205.833 229.5,210.167 229.5,214.5C 225.833,214.5 222.167,214.5 218.5,214.5C 218.5,210.833 218.5,207.167 218.5,203.5C 218.833,202.5 219.5,201.833 220.5,201.5 Z"/></g>
<g><path style="opacity:1" fill="#c9cccf" d="M 220.5,201.5 C 221.568,200.566 222.901,200.232 224.5,200.5C 229.511,200.334 234.511,200.501 239.5,201C 240.381,201.708 241.047,202.542 241.5,203.5C 241.723,208.39 241.723,213.057 241.5,217.5C 237.5,217.5 233.5,217.5 229.5,217.5C 225.4,217.237 221.4,217.57 217.5,218.5C 217.461,217.417 217.127,216.417 216.5,215.5C 217.109,211.365 217.776,207.365 218.5,203.5C 218.5,207.167 218.5,210.833 218.5,214.5C 222.167,214.5 225.833,214.5 229.5,214.5C 229.5,210.167 229.5,205.833 229.5,201.5C 226.5,201.5 223.5,201.5 220.5,201.5 Z"/></g>
<g><path style="opacity:1" fill="#15134a" d="M 241.5,203.5 C 249.167,210.833 256.833,218.167 264.5,225.5C 260.437,235.132 259.437,245.132 261.5,255.5C 261.167,255.5 260.833,255.5 260.5,255.5C 258.397,240.628 252.064,227.961 241.5,217.5C 241.723,213.057 241.723,208.39 241.5,203.5 Z"/></g>
<g><path style="opacity:1" fill="#56ad41" d="M 303.5,214.5 C 303.877,218.607 302.877,222.274 300.5,225.5C 299.833,225.5 299.167,225.5 298.5,225.5C 295.527,223.853 292.86,221.853 290.5,219.5C 288.002,215.501 286.335,211.167 285.5,206.5C 292.458,206.612 298.458,209.278 303.5,214.5 Z"/></g>
<g><path style="opacity:1" fill="#857941" d="M 325.5,206.5 C 334.506,206.334 343.506,206.5 352.5,207C 354.602,208.733 354.935,210.733 353.5,213C 348.511,213.499 343.511,213.666 338.5,213.5C 334.154,213.666 329.821,213.499 325.5,213C 322.959,210.607 322.959,208.44 325.5,206.5 Z"/></g>
<g><path style="opacity:1" fill="#457a3e" d="M 307.5,214.5 C 306.178,219.429 305.178,224.429 304.5,229.5C 303.609,230.11 302.609,230.443 301.5,230.5C 301.5,230.167 301.5,229.833 301.5,229.5C 301.768,227.901 301.434,226.568 300.5,225.5C 302.877,222.274 303.877,218.607 303.5,214.5C 304.833,211.833 306.167,211.833 307.5,214.5 Z"/></g>
<g><path style="opacity:1" fill="#151348" d="M 307.5,214.5 C 310.45,216.115 313.116,218.115 315.5,220.5C 315.5,222.167 315.5,223.833 315.5,225.5C 311.691,226.436 308.025,227.77 304.5,229.5C 305.178,224.429 306.178,219.429 307.5,214.5 Z"/></g>
<g><path style="opacity:1" fill="#70e0ed" d="M 229.5,217.5 C 229.5,230.167 229.5,242.833 229.5,255.5C 219.5,255.5 209.5,255.5 199.5,255.5C 200.969,240.897 206.969,228.564 217.5,218.5C 221.4,217.57 225.4,217.237 229.5,217.5 Z"/></g>
<g><path style="opacity:1" fill="#39c5d8" d="M 229.5,217.5 C 233.5,217.5 237.5,217.5 241.5,217.5C 252.064,227.961 258.397,240.628 260.5,255.5C 258.833,255.5 257.167,255.5 255.5,255.5C 246.833,255.5 238.167,255.5 229.5,255.5C 229.5,242.833 229.5,230.167 229.5,217.5 Z"/></g>
<g><path style="opacity:1" fill="#c72f01" d="M 290.5,219.5 C 292.86,221.853 295.527,223.853 298.5,225.5C 299.026,227.23 300.026,228.564 301.5,229.5C 301.5,229.833 301.5,230.167 301.5,230.5C 300.423,238.882 299.09,247.215 297.5,255.5C 285.5,255.5 273.5,255.5 261.5,255.5C 259.437,245.132 260.437,235.132 264.5,225.5C 271.768,217.523 280.435,215.523 290.5,219.5 Z"/></g>
<g><path style="opacity:1" fill="#261d44" d="M 298.5,225.5 C 299.167,225.5 299.833,225.5 300.5,225.5C 301.434,226.568 301.768,227.901 301.5,229.5C 300.026,228.564 299.026,227.23 298.5,225.5 Z"/></g>
<g><path style="opacity:1" fill="#930200" d="M 315.5,225.5 C 318.902,225.342 322.236,225.676 325.5,226.5C 330.04,228.368 333.707,231.368 336.5,235.5C 338.183,239.636 338.85,243.969 338.5,248.5C 338.326,250.861 337.993,253.194 337.5,255.5C 324.167,255.5 310.833,255.5 297.5,255.5C 299.09,247.215 300.423,238.882 301.5,230.5C 302.609,230.443 303.609,230.11 304.5,229.5C 308.025,227.77 311.691,226.436 315.5,225.5 Z"/></g>
<g><path style="opacity:1" fill="#837740" d="M 325.5,226.5 C 326.833,226.5 328.167,226.5 329.5,226.5C 336.655,227.329 343.989,227.829 351.5,228C 353.602,229.733 353.935,231.733 352.5,234C 346.984,234.173 341.651,234.673 336.5,235.5C 333.707,231.368 330.04,228.368 325.5,226.5 Z"/></g>
<g><path style="opacity:1" fill="#80743e" d="M 338.5,248.5 C 342.846,248.334 347.179,248.501 351.5,249C 352.909,251.464 352.576,253.631 350.5,255.5C 346.167,255.5 341.833,255.5 337.5,255.5C 337.993,253.194 338.326,250.861 338.5,248.5 Z"/></g>
<g><path style="opacity:1" fill="#e9a22f" d="M 116.5,255.5 C 130.167,255.5 143.833,255.5 157.5,255.5C 171.167,255.5 184.833,255.5 198.5,255.5C 198.833,255.5 199.167,255.5 199.5,255.5C 209.5,255.5 219.5,255.5 229.5,255.5C 238.167,255.5 246.833,255.5 255.5,255.5C 255.17,275.007 255.503,294.341 256.5,313.5C 256.158,314.338 255.492,314.672 254.5,314.5C 249.714,302.154 240.714,297.654 227.5,301C 217.34,306.166 213.84,314.333 217,325.5C 220.995,334.637 226.828,342.47 234.5,349C 242.036,354.711 249.036,360.878 255.5,367.5C 255.833,367.5 256.167,367.5 256.5,367.5C 255.526,377.418 255.193,387.418 255.5,397.5C 212.803,397.817 170.136,397.484 127.5,396.5C 120.646,392.802 116.146,387.135 114,379.5C 113.5,338.168 113.333,296.835 113.5,255.5C 114.5,255.5 115.5,255.5 116.5,255.5 Z"/></g>
<g><path style="opacity:1" fill="#df9112" d="M 255.5,255.5 C 257.167,255.5 258.833,255.5 260.5,255.5C 260.833,255.5 261.167,255.5 261.5,255.5C 273.5,255.5 285.5,255.5 297.5,255.5C 310.833,255.5 324.167,255.5 337.5,255.5C 341.833,255.5 346.167,255.5 350.5,255.5C 353.5,255.5 356.5,255.5 359.5,255.5C 371.5,255.5 383.5,255.5 395.5,255.5C 396.833,275.989 397.5,296.822 397.5,318C 397.333,338.833 397.167,359.667 397,380.5C 394.167,388.667 388.667,394.167 380.5,397C 338.835,397.5 297.168,397.667 255.5,397.5C 255.193,387.418 255.526,377.418 256.5,367.5C 266.775,357.394 277.275,347.394 288,337.5C 296.053,328.347 297.387,318.347 292,307.5C 281.62,297.261 270.954,296.928 260,306.5C 258.295,308.577 257.128,310.91 256.5,313.5C 255.503,294.341 255.17,275.007 255.5,255.5 Z"/></g>
<g><path style="opacity:1" fill="#feecb4" d="M 254.5,314.5 C 255.473,332.12 255.806,349.786 255.5,367.5C 249.036,360.878 242.036,354.711 234.5,349C 226.828,342.47 220.995,334.637 217,325.5C 213.84,314.333 217.34,306.166 227.5,301C 240.714,297.654 249.714,302.154 254.5,314.5 Z"/></g>
<g><path style="opacity:1" fill="#fde086" d="M 256.5,367.5 C 256.167,367.5 255.833,367.5 255.5,367.5C 255.806,349.786 255.473,332.12 254.5,314.5C 255.492,314.672 256.158,314.338 256.5,313.5C 257.128,310.91 258.295,308.577 260,306.5C 270.954,296.928 281.62,297.261 292,307.5C 297.387,318.347 296.053,328.347 288,337.5C 277.275,347.394 266.775,357.394 256.5,367.5 Z"/></g>
</svg>
